<svg xmlns="http://www.w3.org/2000/svg" xmlns:xlink="http://www.w3.org/1999/xlink" width="466" zoomAndPan="magnify" viewBox="0 0 349.5 159.750002" height="213" preserveAspectRatio="xMidYMid meet" version="1.0"><defs><g/><clipPath id="8080f8b2ec"><path d="M 5 0 L 83 0 L 83 148.269531 L 5 148.269531 Z M 5 0 " clip-rule="nonzero"/></clipPath><clipPath id="50c07e65fa"><path d="M 6.4375 86.070312 C 0.121094 29.363281 60.882812 43.03125 81.707031 20.480469 C 87.511719 71.726562 28.117188 50.542969 6.4375 86.070312 Z M 75.5625 62.839844 C 67.714844 76.167969 18.132812 73.664062 12.070312 98.023438 C 0.808594 144.824219 52.007812 148.242188 52.007812 148.242188 C 52.007812 148.242188 22.652344 139.015625 28.796875 112.027344 C 32.210938 98.710938 77.957031 105.542969 75.5625 62.839844 Z M 35.390625 -0.0117188 C 27.742188 -0.0117188 21.539062 6.195312 21.539062 13.847656 C 21.539062 21.5 27.742188 27.707031 35.390625 27.707031 C 43.039062 27.707031 49.238281 21.5 49.238281 13.847656 C 49.238281 6.195312 43.039062 -0.0117188 35.390625 -0.0117188 Z M 35.390625 -0.0117188 " clip-rule="nonzero"/></clipPath><linearGradient x1="64.987444" gradientTransform="matrix(0.354408, 0, 0, 0.354623, -44.559471, -14.539537)" y1="353.228812" x2="430.937296" gradientUnits="userSpaceOnUse" y2="141.948194" id="337667dd49"><stop stop-opacity="1" stop-color="rgb(97.999573%, 72.499084%, 8.198547%)" offset="0"/><stop stop-opacity="1" stop-color="rgb(97.999573%, 72.499084%, 8.198547%)" offset="0.125"/><stop stop-opacity="1" stop-color="rgb(97.999573%, 72.499084%, 8.198547%)" offset="0.1875"/><stop stop-opacity="1" stop-color="rgb(97.999573%, 72.499084%, 8.198547%)" offset="0.21875"/><stop stop-opacity="1" stop-color="rgb(97.999573%, 72.499084%, 8.198547%)" offset="0.234375"/><stop stop-opacity="1" stop-color="rgb(97.999573%, 72.499084%, 8.198547%)" offset="0.242188"/><stop stop-opacity="1" stop-color="rgb(97.903442%, 71.821594%, 8.395386%)" offset="0.246094"/><stop stop-opacity="1" stop-color="rgb(97.808838%, 71.144104%, 8.59375%)" offset="0.25"/><stop stop-opacity="1" stop-color="rgb(97.662354%, 70.108032%, 8.894348%)" offset="0.253906"/><stop stop-opacity="1" stop-color="rgb(97.517395%, 69.073486%, 9.196472%)" offset="0.257812"/><stop stop-opacity="1" stop-color="rgb(97.372437%, 68.03894%, 9.49707%)" offset="0.261719"/><stop stop-opacity="1" stop-color="rgb(97.227478%, 67.004395%, 9.799194%)" offset="0.265625"/><stop stop-opacity="1" stop-color="rgb(97.080994%, 65.968323%, 10.099792%)" offset="0.269531"/><stop stop-opacity="1" stop-color="rgb(96.936035%, 64.933777%, 10.401917%)" offset="0.273438"/><stop stop-opacity="1" stop-color="rgb(96.789551%, 63.897705%, 10.702515%)" offset="0.277344"/><stop stop-opacity="1" stop-color="rgb(96.644592%, 62.863159%, 11.004639%)" offset="0.28125"/><stop stop-opacity="1" stop-color="rgb(96.498108%, 61.827087%, 11.305237%)" offset="0.285156"/><stop stop-opacity="1" stop-color="rgb(96.353149%, 60.792542%, 11.607361%)" offset="0.289062"/><stop stop-opacity="1" stop-color="rgb(96.208191%, 59.75647%, 11.907959%)" offset="0.292969"/><stop stop-opacity="1" stop-color="rgb(96.063232%, 58.721924%, 12.210083%)" offset="0.296875"/><stop stop-opacity="1" stop-color="rgb(95.916748%, 57.685852%, 12.512207%)" offset="0.300781"/><stop stop-opacity="1" stop-color="rgb(95.77179%, 56.651306%, 12.814331%)" offset="0.304687"/><stop stop-opacity="1" stop-color="rgb(95.625305%, 55.615234%, 13.114929%)" offset="0.308594"/><stop stop-opacity="1" stop-color="rgb(95.480347%, 54.580688%, 13.417053%)" offset="0.3125"/><stop stop-opacity="1" stop-color="rgb(95.333862%, 53.544617%, 13.717651%)" offset="0.316406"/><stop stop-opacity="1" stop-color="rgb(95.188904%, 52.510071%, 14.019775%)" offset="0.320312"/><stop stop-opacity="1" stop-color="rgb(95.043945%, 51.473999%, 14.320374%)" offset="0.324219"/><stop stop-opacity="1" stop-color="rgb(94.898987%, 50.439453%, 14.622498%)" offset="0.328125"/><stop stop-opacity="1" stop-color="rgb(94.752502%, 49.403381%, 14.923096%)" offset="0.332031"/><stop stop-opacity="1" stop-color="rgb(94.607544%, 48.368835%, 15.22522%)" offset="0.335937"/><stop stop-opacity="1" stop-color="rgb(94.46106%, 47.332764%, 15.525818%)" offset="0.339844"/><stop stop-opacity="1" stop-color="rgb(94.316101%, 46.298218%, 15.827942%)" offset="0.34375"/><stop stop-opacity="1" stop-color="rgb(94.169617%, 45.262146%, 16.12854%)" offset="0.347656"/><stop stop-opacity="1" stop-color="rgb(94.024658%, 44.2276%, 16.430664%)" offset="0.351562"/><stop stop-opacity="1" stop-color="rgb(93.8797%, 43.191528%, 16.731262%)" offset="0.355469"/><stop stop-opacity="1" stop-color="rgb(93.734741%, 42.156982%, 17.033386%)" offset="0.359375"/><stop stop-opacity="1" stop-color="rgb(93.588257%, 41.120911%, 17.333984%)" offset="0.363281"/><stop stop-opacity="1" stop-color="rgb(93.443298%, 40.086365%, 17.636108%)" offset="0.367187"/><stop stop-opacity="1" stop-color="rgb(93.296814%, 39.051819%, 17.936707%)" offset="0.371094"/><stop stop-opacity="1" stop-color="rgb(93.151855%, 38.017273%, 18.238831%)" offset="0.375"/><stop stop-opacity="1" stop-color="rgb(93.006897%, 36.981201%, 18.539429%)" offset="0.378906"/><stop stop-opacity="1" stop-color="rgb(92.861938%, 35.946655%, 18.841553%)" offset="0.382812"/><stop stop-opacity="1" stop-color="rgb(92.715454%, 34.910583%, 19.143677%)" offset="0.386719"/><stop stop-opacity="1" stop-color="rgb(92.570496%, 33.876038%, 19.445801%)" offset="0.390625"/><stop stop-opacity="1" stop-color="rgb(92.424011%, 32.839966%, 19.746399%)" offset="0.394531"/><stop stop-opacity="1" stop-color="rgb(92.279053%, 31.80542%, 20.048523%)" offset="0.398437"/><stop stop-opacity="1" stop-color="rgb(92.132568%, 30.769348%, 20.349121%)" offset="0.402344"/><stop stop-opacity="1" stop-color="rgb(91.98761%, 29.734802%, 20.651245%)" offset="0.40625"/><stop stop-opacity="1" stop-color="rgb(91.842651%, 28.69873%, 20.951843%)" offset="0.410156"/><stop stop-opacity="1" stop-color="rgb(91.697693%, 27.664185%, 21.253967%)" offset="0.414062"/><stop stop-opacity="1" stop-color="rgb(91.551208%, 26.628113%, 21.554565%)" offset="0.417969"/><stop stop-opacity="1" stop-color="rgb(91.40625%, 25.593567%, 21.856689%)" offset="0.421875"/><stop stop-opacity="1" stop-color="rgb(91.259766%, 24.557495%, 22.157288%)" offset="0.425781"/><stop stop-opacity="1" stop-color="rgb(91.114807%, 23.522949%, 22.459412%)" offset="0.429687"/><stop stop-opacity="1" stop-color="rgb(90.708923%, 23.300171%, 23.352051%)" offset="0.433594"/><stop stop-opacity="1" stop-color="rgb(90.30304%, 23.077393%, 24.24469%)" offset="0.4375"/><stop stop-opacity="1" stop-color="rgb(89.724731%, 23.390198%, 25.527954%)" offset="0.441406"/><stop stop-opacity="1" stop-color="rgb(89.147949%, 23.703003%, 26.812744%)" offset="0.445312"/><stop stop-opacity="1" stop-color="rgb(88.569641%, 24.015808%, 28.096008%)" offset="0.449219"/><stop stop-opacity="1" stop-color="rgb(87.992859%, 24.330139%, 29.380798%)" offset="0.453125"/><stop stop-opacity="1" stop-color="rgb(87.414551%, 24.642944%, 30.664062%)" offset="0.457031"/><stop stop-opacity="1" stop-color="rgb(86.837769%, 24.957275%, 31.948853%)" offset="0.460938"/><stop stop-opacity="1" stop-color="rgb(86.25946%, 25.270081%, 33.232117%)" offset="0.464844"/><stop stop-opacity="1" stop-color="rgb(85.682678%, 25.584412%, 34.516907%)" offset="0.46875"/><stop stop-opacity="1" stop-color="rgb(85.10437%, 25.897217%, 35.800171%)" offset="0.472656"/><stop stop-opacity="1" stop-color="rgb(84.527588%, 26.210022%, 37.084961%)" offset="0.476562"/><stop stop-opacity="1" stop-color="rgb(83.94928%, 26.522827%, 38.368225%)" offset="0.480469"/><stop stop-opacity="1" stop-color="rgb(83.372498%, 26.837158%, 39.653015%)" offset="0.484375"/><stop stop-opacity="1" stop-color="rgb(82.794189%, 27.149963%, 40.936279%)" offset="0.488281"/><stop stop-opacity="1" stop-color="rgb(82.215881%, 27.464294%, 42.221069%)" offset="0.492187"/><stop stop-opacity="1" stop-color="rgb(81.637573%, 27.7771%, 43.504333%)" offset="0.496094"/><stop stop-opacity="1" stop-color="rgb(81.060791%, 28.091431%, 44.787598%)" offset="0.5"/><stop stop-opacity="1" stop-color="rgb(80.482483%, 28.404236%, 46.070862%)" offset="0.503906"/><stop stop-opacity="1" stop-color="rgb(79.905701%, 28.717041%, 47.355652%)" offset="0.507812"/><stop stop-opacity="1" stop-color="rgb(79.327393%, 29.029846%, 48.638916%)" offset="0.511719"/><stop stop-opacity="1" stop-color="rgb(78.75061%, 29.344177%, 49.923706%)" offset="0.515625"/><stop stop-opacity="1" stop-color="rgb(78.172302%, 29.656982%, 51.20697%)" offset="0.519531"/><stop stop-opacity="1" stop-color="rgb(77.59552%, 29.971313%, 52.49176%)" offset="0.523438"/><stop stop-opacity="1" stop-color="rgb(77.017212%, 30.284119%, 53.775024%)" offset="0.527344"/><stop stop-opacity="1" stop-color="rgb(76.44043%, 30.59845%, 55.059814%)" offset="0.53125"/><stop stop-opacity="1" stop-color="rgb(75.862122%, 30.911255%, 56.343079%)" offset="0.535156"/><stop stop-opacity="1" stop-color="rgb(75.285339%, 31.22406%, 57.627869%)" offset="0.539062"/><stop stop-opacity="1" stop-color="rgb(74.707031%, 31.536865%, 58.911133%)" offset="0.542969"/><stop stop-opacity="1" stop-color="rgb(74.128723%, 31.851196%, 60.195923%)" offset="0.546875"/><stop stop-opacity="1" stop-color="rgb(73.550415%, 32.164001%, 61.479187%)" offset="0.550781"/><stop stop-opacity="1" stop-color="rgb(72.973633%, 32.478333%, 62.763977%)" offset="0.554688"/><stop stop-opacity="1" stop-color="rgb(72.395325%, 32.791138%, 64.047241%)" offset="0.558594"/><stop stop-opacity="1" stop-color="rgb(71.818542%, 33.105469%, 65.332031%)" offset="0.5625"/><stop stop-opacity="1" stop-color="rgb(71.240234%, 33.418274%, 66.615295%)" offset="0.566406"/><stop stop-opacity="1" stop-color="rgb(70.663452%, 33.731079%, 67.89856%)" offset="0.570312"/><stop stop-opacity="1" stop-color="rgb(70.085144%, 34.043884%, 69.181824%)" offset="0.574219"/><stop stop-opacity="1" stop-color="rgb(69.508362%, 34.358215%, 70.466614%)" offset="0.578125"/><stop stop-opacity="1" stop-color="rgb(68.930054%, 34.671021%, 71.749878%)" offset="0.582031"/><stop stop-opacity="1" stop-color="rgb(68.353271%, 34.985352%, 73.034668%)" offset="0.585938"/><stop stop-opacity="1" stop-color="rgb(67.774963%, 35.298157%, 74.317932%)" offset="0.589844"/><stop stop-opacity="1" stop-color="rgb(67.198181%, 35.612488%, 75.602722%)" offset="0.59375"/><stop stop-opacity="1" stop-color="rgb(66.609192%, 36.068726%, 76.649475%)" offset="0.597656"/><stop stop-opacity="1" stop-color="rgb(66.020203%, 36.526489%, 77.697754%)" offset="0.601562"/><stop stop-opacity="1" stop-color="rgb(65.393066%, 37.486267%, 77.920532%)" offset="0.605469"/><stop stop-opacity="1" stop-color="rgb(64.76593%, 38.446045%, 78.143311%)" offset="0.609375"/><stop stop-opacity="1" stop-color="rgb(64.138794%, 39.405823%, 78.366089%)" offset="0.613281"/><stop stop-opacity="1" stop-color="rgb(63.511658%, 40.367126%, 78.588867%)" offset="0.617188"/><stop stop-opacity="1" stop-color="rgb(62.882996%, 41.326904%, 78.811646%)" offset="0.621094"/><stop stop-opacity="1" stop-color="rgb(62.255859%, 42.286682%, 79.034424%)" offset="0.625"/><stop stop-opacity="1" stop-color="rgb(61.628723%, 43.24646%, 79.255676%)" offset="0.628906"/><stop stop-opacity="1" stop-color="rgb(61.001587%, 44.206238%, 79.478455%)" offset="0.632812"/><stop stop-opacity="1" stop-color="rgb(60.374451%, 45.166016%, 79.701233%)" offset="0.636719"/><stop stop-opacity="1" stop-color="rgb(59.747314%, 46.127319%, 79.924011%)" offset="0.640625"/><stop stop-opacity="1" stop-color="rgb(59.120178%, 47.087097%, 80.14679%)" offset="0.644531"/><stop stop-opacity="1" stop-color="rgb(58.493042%, 48.046875%, 80.369568%)" offset="0.648438"/><stop stop-opacity="1" stop-color="rgb(57.865906%, 49.006653%, 80.592346%)" offset="0.652344"/><stop stop-opacity="1" stop-color="rgb(57.23877%, 49.966431%, 80.815125%)" offset="0.65625"/><stop stop-opacity="1" stop-color="rgb(56.610107%, 50.926208%, 81.036377%)" offset="0.660156"/><stop stop-opacity="1" stop-color="rgb(55.982971%, 51.887512%, 81.259155%)" offset="0.664062"/><stop stop-opacity="1" stop-color="rgb(55.355835%, 52.84729%, 81.481934%)" offset="0.667969"/><stop stop-opacity="1" stop-color="rgb(54.728699%, 53.807068%, 81.704712%)" offset="0.671875"/><stop stop-opacity="1" stop-color="rgb(54.101562%, 54.766846%, 81.92749%)" offset="0.675781"/><stop stop-opacity="1" stop-color="rgb(53.474426%, 55.726624%, 82.150269%)" offset="0.679688"/><stop stop-opacity="1" stop-color="rgb(52.84729%, 56.686401%, 82.373047%)" offset="0.683594"/><stop stop-opacity="1" stop-color="rgb(52.220154%, 57.647705%, 82.595825%)" offset="0.6875"/><stop stop-opacity="1" stop-color="rgb(51.593018%, 58.607483%, 82.817078%)" offset="0.691406"/><stop stop-opacity="1" stop-color="rgb(50.965881%, 59.567261%, 83.039856%)" offset="0.695312"/><stop stop-opacity="1" stop-color="rgb(50.337219%, 60.527039%, 83.262634%)" offset="0.699219"/><stop stop-opacity="1" stop-color="rgb(49.710083%, 61.486816%, 83.485413%)" offset="0.703125"/><stop stop-opacity="1" stop-color="rgb(49.082947%, 62.446594%, 83.708191%)" offset="0.707031"/><stop stop-opacity="1" stop-color="rgb(48.455811%, 63.407898%, 83.930969%)" offset="0.710938"/><stop stop-opacity="1" stop-color="rgb(47.828674%, 64.367676%, 84.153748%)" offset="0.714844"/><stop stop-opacity="1" stop-color="rgb(47.201538%, 65.327454%, 84.376526%)" offset="0.71875"/><stop stop-opacity="1" stop-color="rgb(46.574402%, 66.287231%, 84.597778%)" offset="0.722656"/><stop stop-opacity="1" stop-color="rgb(45.947266%, 67.248535%, 84.820557%)" offset="0.726562"/><stop stop-opacity="1" stop-color="rgb(45.320129%, 68.208313%, 85.043335%)" offset="0.730469"/><stop stop-opacity="1" stop-color="rgb(44.692993%, 69.168091%, 85.266113%)" offset="0.734375"/><stop stop-opacity="1" stop-color="rgb(44.064331%, 70.127869%, 85.488892%)" offset="0.738281"/><stop stop-opacity="1" stop-color="rgb(43.437195%, 71.087646%, 85.71167%)" offset="0.742188"/><stop stop-opacity="1" stop-color="rgb(42.810059%, 72.047424%, 85.934448%)" offset="0.746094"/><stop stop-opacity="1" stop-color="rgb(42.182922%, 73.008728%, 86.157227%)" offset="0.75"/><stop stop-opacity="1" stop-color="rgb(41.555786%, 73.968506%, 86.378479%)" offset="0.753906"/><stop stop-opacity="1" stop-color="rgb(40.92865%, 74.928284%, 86.601257%)" offset="0.757812"/><stop stop-opacity="1" stop-color="rgb(40.301514%, 75.888062%, 86.824036%)" offset="0.761719"/><stop stop-opacity="1" stop-color="rgb(39.674377%, 76.847839%, 87.046814%)" offset="0.765625"/><stop stop-opacity="1" stop-color="rgb(39.047241%, 77.807617%, 87.269592%)" offset="0.769531"/><stop stop-opacity="1" stop-color="rgb(38.420105%, 78.768921%, 87.492371%)" offset="0.773438"/><stop stop-opacity="1" stop-color="rgb(38.409424%, 78.78418%, 87.495422%)" offset="0.78125"/><stop stop-opacity="1" stop-color="rgb(38.398743%, 78.799438%, 87.5%)" offset="0.8125"/><stop stop-opacity="1" stop-color="rgb(38.398743%, 78.799438%, 87.5%)" offset="0.875"/><stop stop-opacity="1" stop-color="rgb(38.398743%, 78.799438%, 87.5%)" offset="1"/></linearGradient></defs><path stroke-linecap="butt" transform="matrix(1.164725, 0, 0, 1.164725, 72.787501, 36.184006)" fill="none" stroke-linejoin="miter" d="M 7.097975 33.001004 L 7.097975 4.144939 L 25.885943 4.144939 L 25.885943 9.484183 L 14.130886 9.484183 L 14.130886 15.695414 L 22.924541 15.695414 L 22.924541 21.038012 L 14.130886 21.038012 L 14.130886 33.001004 Z M 40.069149 21.366684 L 40.069149 4.144939 L 47.095352 4.144939 L 47.095352 21.366684 C 47.095352 23.093889 47.521285 24.421993 48.369795 25.350994 C 49.221659 26.28335 50.469272 26.746174 52.115986 26.746174 C 53.759346 26.746174 55.020374 26.28335 55.899068 25.350994 C 56.774409 24.421993 57.213757 23.093889 57.213757 21.366684 L 57.213757 4.144939 L 64.239961 4.144939 L 64.239961 21.366684 C 64.239961 23.915569 63.642985 26.119014 62.452387 27.970309 C 61.261789 29.818251 59.752581 31.166478 57.924762 32.014988 C 56.107004 32.866852 54.128264 33.289431 51.995249 33.289431 C 48.64816 33.289431 45.824264 32.249754 43.523559 30.1704 C 41.222855 28.080985 40.069149 25.146413 40.069149 21.366684 Z M 77.732284 9.484183 L 77.732284 4.144939 L 100.504563 4.144939 L 100.504563 9.484183 L 92.606372 9.484183 L 92.606372 33.001004 L 85.580168 33.001004 L 85.580168 9.484183 Z M 114.027071 21.366684 L 114.027071 4.144939 L 121.053274 4.144939 L 121.053274 21.366684 C 121.053274 23.093889 121.479207 24.421993 122.327717 25.350994 C 123.179582 26.28335 124.427194 26.746174 126.070554 26.746174 C 127.717268 26.746174 128.978296 26.28335 129.85699 25.350994 C 130.732331 24.421993 131.171679 23.093889 131.171679 21.366684 L 131.171679 4.144939 L 138.197883 4.144939 L 138.197883 21.366684 C 138.197883 23.915569 137.600907 26.119014 136.410309 27.970309 C 135.219711 29.818251 133.710503 31.166478 131.882684 32.014988 C 130.064926 32.866852 128.086186 33.289431 125.953171 33.289431 C 122.606082 33.289431 119.782186 32.249754 117.481481 30.1704 C 115.177423 28.080985 114.027071 25.146413 114.027071 21.366684 Z M 160.691796 21.779201 L 160.691796 33.001004 L 153.655531 33.001004 L 153.655531 4.144939 L 165.048378 4.144939 C 168.392113 4.144939 170.994659 5.006864 172.856016 6.734069 C 174.724081 8.461275 175.656436 10.540629 175.656436 12.975485 C 175.656436 14.649029 175.146659 16.282328 174.130459 17.875382 C 173.114259 19.461727 171.454129 20.585249 169.153425 21.245947 L 176.226582 33.001004 L 168.006426 33.001004 L 161.513476 21.779201 Z M 160.691796 9.484183 L 160.691796 16.429895 L 165.048378 16.429895 C 166.118239 16.429895 166.960042 16.114638 167.577141 15.487479 C 168.190885 14.856965 168.499435 14.031931 168.499435 13.005669 C 168.499435 11.976054 168.180824 11.134251 167.546956 10.476906 C 166.916443 9.816209 166.084701 9.484183 165.048378 9.484183 Z M 208.047404 4.054386 L 208.047404 9.403692 L 197.607035 9.403692 L 197.607035 15.604861 L 206.813207 15.604861 L 206.813207 20.957521 L 197.607035 20.957521 L 197.607035 27.66176 L 208.047404 27.66176 L 208.047404 33.001004 L 190.574124 33.001004 L 190.574124 4.054386 Z M 208.047404 4.054386 " stroke="#8c52ff" stroke-width="1.233414" stroke-opacity="1" stroke-miterlimit="4"/><g fill="#141313" fill-opacity="1"><g transform="translate(77.464599, 74.619924)"><g><path d="M 3.59375 0 L 3.59375 -33.609375 L 25.46875 -33.609375 L 25.46875 -27.390625 L 11.78125 -27.390625 L 11.78125 -20.15625 L 22.015625 -20.15625 L 22.015625 -13.9375 L 11.78125 -13.9375 L 11.78125 0 Z M 3.59375 0 "/></g></g></g><g fill="#141313" fill-opacity="1"><g transform="translate(116.010043, 74.619924)"><g><path d="M 3.453125 -13.546875 L 3.453125 -33.609375 L 11.640625 -33.609375 L 11.640625 -13.546875 C 11.640625 -11.535156 12.132812 -9.988281 13.125 -8.90625 C 14.113281 -7.820312 15.5625 -7.28125 17.46875 -7.28125 C 19.382812 -7.28125 20.851562 -7.820312 21.875 -8.90625 C 22.894531 -9.988281 23.40625 -11.535156 23.40625 -13.546875 L 23.40625 -33.609375 L 31.59375 -33.609375 L 31.59375 -13.546875 C 31.59375 -10.578125 30.898438 -8.015625 29.515625 -5.859375 C 28.128906 -3.710938 26.375 -2.144531 24.25 -1.15625 C 22.125 -0.164062 19.816406 0.328125 17.328125 0.328125 C 13.429688 0.328125 10.144531 -0.878906 7.46875 -3.296875 C 4.789062 -5.722656 3.453125 -9.140625 3.453125 -13.546875 Z M 3.453125 -13.546875 "/></g></g></g><g fill="#141313" fill-opacity="1"><g transform="translate(162.024932, 74.619924)"><g><path d="M 1.296875 -27.390625 L 1.296875 -33.609375 L 27.8125 -33.609375 L 27.8125 -27.390625 L 18.625 -27.390625 L 18.625 0 L 10.4375 0 L 10.4375 -27.390625 Z M 1.296875 -27.390625 "/></g></g></g><g fill="#141313" fill-opacity="1"><g transform="translate(202.150452, 74.619924)"><g><path d="M 3.453125 -13.546875 L 3.453125 -33.609375 L 11.640625 -33.609375 L 11.640625 -13.546875 C 11.640625 -11.535156 12.132812 -9.988281 13.125 -8.90625 C 14.113281 -7.820312 15.5625 -7.28125 17.46875 -7.28125 C 19.382812 -7.28125 20.851562 -7.820312 21.875 -8.90625 C 22.894531 -9.988281 23.40625 -11.535156 23.40625 -13.546875 L 23.40625 -33.609375 L 31.59375 -33.609375 L 31.59375 -13.546875 C 31.59375 -10.578125 30.898438 -8.015625 29.515625 -5.859375 C 28.128906 -3.710938 26.375 -2.144531 24.25 -1.15625 C 22.125 -0.164062 19.816406 0.328125 17.328125 0.328125 C 13.429688 0.328125 10.144531 -0.878906 7.46875 -3.296875 C 4.789062 -5.722656 3.453125 -9.140625 3.453125 -13.546875 Z M 3.453125 -13.546875 "/></g></g></g><g fill="#141313" fill-opacity="1"><g transform="translate(248.165345, 74.619924)"><g><path d="M 11.78125 -13.0625 L 11.78125 0 L 3.59375 0 L 3.59375 -33.609375 L 16.859375 -33.609375 C 20.742188 -33.609375 23.769531 -32.601562 25.9375 -30.59375 C 28.113281 -28.582031 29.203125 -26.15625 29.203125 -23.3125 C 29.203125 -21.363281 28.609375 -19.460938 27.421875 -17.609375 C 26.242188 -15.765625 24.316406 -14.457031 21.640625 -13.6875 L 29.875 0 L 20.296875 0 L 12.734375 -13.0625 Z M 11.78125 -27.390625 L 11.78125 -19.296875 L 16.859375 -19.296875 C 18.097656 -19.296875 19.078125 -19.660156 19.796875 -20.390625 C 20.515625 -21.128906 20.875 -22.097656 20.875 -23.296875 C 20.875 -24.492188 20.503906 -25.472656 19.765625 -26.234375 C 19.035156 -27.003906 18.066406 -27.390625 16.859375 -27.390625 Z M 11.78125 -27.390625 "/></g></g></g><g fill="#141313" fill-opacity="1"><g transform="translate(291.16373, 74.619924)"><g><path d="M 23.9375 -33.703125 L 23.9375 -27.484375 L 11.78125 -27.484375 L 11.78125 -20.25 L 22.5 -20.25 L 22.5 -14.03125 L 11.78125 -14.03125 L 11.78125 -6.21875 L 23.9375 -6.21875 L 23.9375 0 L 3.59375 0 L 3.59375 -33.703125 Z M 23.9375 -33.703125 "/></g></g></g><path fill="#ffed00" d="M 116.5625 138.949219 L 116.5625 124.285156 C 116.5625 122.257812 115.757812 120.3125 114.324219 118.878906 C 112.890625 117.445312 110.945312 116.640625 108.917969 116.640625 L 95.058594 116.640625 C 90.839844 116.640625 87.414062 113.21875 87.414062 108.996094 L 87.414062 93.707031 C 87.414062 89.484375 90.839844 86.0625 95.058594 86.0625 L 300.976562 86.0625 C 303.003906 86.0625 304.949219 86.867188 306.382812 88.300781 C 307.816406 89.734375 308.621094 91.679688 308.621094 93.707031 L 308.621094 108.996094 C 308.621094 111.023438 307.816406 112.96875 306.382812 114.402344 C 304.949219 115.835938 303.003906 116.640625 300.976562 116.640625 L 287.128906 116.640625 C 285.101562 116.640625 283.160156 117.445312 281.726562 118.878906 C 280.292969 120.3125 279.484375 122.257812 279.484375 124.285156 L 279.484375 138.949219 C 279.484375 140.976562 278.679688 142.921875 277.246094 144.355469 C 275.8125 145.789062 273.867188 146.59375 271.839844 146.59375 L 124.207031 146.59375 C 119.984375 146.59375 116.5625 143.171875 116.5625 138.949219 Z M 116.5625 138.949219 " fill-opacity="0.1" fill-rule="nonzero"/><g fill="#0b4366" fill-opacity="1"><g transform="translate(91.914796, 109.21416)"><g><path d="M 14.234375 -15.0625 L 12.359375 -15.0625 L 12.359375 -8.15625 L 4.0625 -8.15625 L 4.0625 -15.0625 L 2.1875 -15.0625 L 2.1875 0 L 4.0625 0 L 4.0625 -6.59375 L 12.359375 -6.59375 L 12.359375 0 L 14.234375 0 Z M 14.234375 -15.0625 "/></g></g></g><g fill="#0b4366" fill-opacity="1"><g transform="translate(108.114959, 109.21416)"><g><path d="M 13.359375 -15.0625 L 11.484375 -15.0625 L 11.484375 -5.734375 C 11.484375 -5.265625 11.484375 -4.796875 11.4375 -4.40625 C 11.265625 -2.515625 10.015625 -1.171875 7.703125 -1.171875 C 5.390625 -1.171875 4.140625 -2.515625 3.96875 -4.40625 C 3.921875 -4.796875 3.921875 -5.265625 3.921875 -5.734375 L 3.921875 -15.0625 L 2.046875 -15.0625 L 2.046875 -5.5625 C 2.046875 -5.09375 2.046875 -4.65625 2.09375 -4.21875 C 2.3125 -1.703125 4.015625 0.3125 7.703125 0.3125 C 11.390625 0.3125 13.09375 -1.703125 13.3125 -4.21875 C 13.359375 -4.65625 13.359375 -5.09375 13.359375 -5.5625 Z M 13.359375 -15.0625 "/></g></g></g><g fill="#0b4366" fill-opacity="1"><g transform="translate(123.267144, 109.21416)"><g><path d="M 17.203125 -15.0625 L 14.171875 -15.0625 L 9.734375 -1.59375 L 5.28125 -15.0625 L 2.1875 -15.0625 L 2.1875 0 L 4.0625 0 L 4.0625 -7.75 C 4.0625 -9.609375 4.0625 -11.671875 4.015625 -13.3125 C 4.5 -11.703125 5.1875 -9.609375 5.8125 -7.8125 L 8.515625 0 L 10.875 0 L 13.53125 -7.765625 C 14.171875 -9.609375 14.859375 -11.71875 15.359375 -13.359375 C 15.328125 -11.71875 15.328125 -9.625 15.328125 -7.75 L 15.328125 0 L 17.203125 0 Z M 17.203125 -15.0625 "/></g></g></g><g fill="#0b4366" fill-opacity="1"><g transform="translate(142.436603, 109.21416)"><g><path d="M 9.953125 -5.328125 L 11.75 0 L 13.78125 0 L 8.578125 -15.0625 L 6.046875 -15.0625 L 0.640625 0 L 2.640625 0 L 4.40625 -5.328125 Z M 4.9375 -6.859375 L 7.265625 -13.578125 L 9.453125 -6.859375 Z M 4.9375 -6.859375 "/></g></g></g><g fill="#0b4366" fill-opacity="1"><g transform="translate(156.649964, 109.21416)"><g><path d="M 13.96875 0 L 13.921875 -15.0625 L 12.09375 -15.0625 L 12.09375 -7.53125 C 12.09375 -5.765625 12.109375 -3.609375 12.15625 -1.828125 L 5.0625 -15.0625 L 2.1875 -15.0625 L 2.1875 0 L 4.0625 0 L 4.0625 -7.53125 C 4.0625 -9.296875 4.03125 -11.453125 4 -13.234375 L 11.09375 0 Z M 13.96875 0 "/></g></g></g><g fill="#0b4366" fill-opacity="1"><g transform="translate(172.588134, 109.21416)"><g/></g></g><g fill="#0b4366" fill-opacity="1"><g transform="translate(177.566145, 109.21416)"><g><path d="M 12.09375 -3.953125 C 11.96875 -5.453125 11.375 -6.828125 10.15625 -7.40625 C 11.546875 -7.84375 12.828125 -8.96875 12.828125 -10.953125 C 12.828125 -13.484375 11.265625 -14.6875 9.078125 -14.96875 C 8.40625 -15.0625 7.875 -15.0625 7.109375 -15.0625 L 2.1875 -15.0625 L 2.1875 0 L 4.0625 0 L 4.0625 -6.484375 L 6.890625 -6.484375 C 7.25 -6.484375 7.625 -6.484375 7.96875 -6.46875 C 9.453125 -6.359375 10.046875 -5.328125 10.21875 -3.78125 C 10.40625 -1.921875 10.609375 -0.953125 11.015625 0 L 13.09375 0 C 12.484375 -0.8125 12.265625 -1.984375 12.09375 -3.953125 Z M 4.0625 -8.015625 L 4.0625 -13.53125 L 7.109375 -13.53125 C 7.796875 -13.53125 8.203125 -13.515625 8.625 -13.453125 C 10.015625 -13.234375 10.828125 -12.46875 10.828125 -10.78125 C 10.828125 -9.078125 9.796875 -8.1875 8.40625 -8.046875 C 7.984375 -8.015625 7.625 -8.015625 6.9375 -8.015625 Z M 4.0625 -8.015625 "/></g></g></g><g fill="#0b4366" fill-opacity="1"><g transform="translate(191.342859, 109.21416)"><g><path d="M 12.203125 -1.53125 L 4.0625 -1.53125 L 4.0625 -6.765625 L 11.328125 -6.765625 L 11.328125 -8.296875 L 4.0625 -8.296875 L 4.0625 -13.53125 L 11.984375 -13.53125 L 11.984375 -15.0625 L 2.1875 -15.0625 L 2.1875 0 L 12.203125 0 Z M 12.203125 -1.53125 "/></g></g></g><g fill="#0b4366" fill-opacity="1"><g transform="translate(204.420911, 109.21416)"><g><path d="M 6.859375 -15.359375 C 4.078125 -15.359375 1.828125 -13.734375 1.828125 -11.125 C 1.828125 -8.640625 3.6875 -7.578125 6.359375 -6.96875 C 9 -6.359375 10.046875 -5.515625 10.046875 -3.6875 C 10.046875 -2.125 8.640625 -1.171875 6.921875 -1.171875 C 4.953125 -1.171875 3.578125 -2.296875 3.140625 -4.28125 L 1.140625 -4.28125 C 1.46875 -1.375 3.5625 0.3125 6.875 0.3125 C 9.78125 0.3125 12.046875 -1.390625 12.046875 -4.03125 C 12.046875 -6.59375 10.390625 -7.953125 7.078125 -8.703125 C 4.78125 -9.234375 3.84375 -9.9375 3.84375 -11.5625 C 3.84375 -13.140625 5.109375 -13.875 6.703125 -13.875 C 8.59375 -13.875 9.71875 -12.796875 9.890625 -10.890625 L 11.890625 -10.890625 C 11.609375 -13.46875 9.96875 -15.359375 6.859375 -15.359375 Z M 6.859375 -15.359375 "/></g></g></g><g fill="#0b4366" fill-opacity="1"><g transform="translate(217.455292, 109.21416)"><g><path d="M 8.140625 -15.359375 C 3.5625 -15.359375 1.03125 -12.140625 1.03125 -7.53125 C 1.03125 -2.953125 3.5625 0.3125 8.140625 0.3125 C 12.71875 0.3125 15.265625 -2.953125 15.265625 -7.53125 C 15.265625 -12.140625 12.71875 -15.359375 8.140625 -15.359375 Z M 8.140625 -1.171875 C 4.984375 -1.171875 3.125 -3.625 3.125 -7.53125 C 3.125 -11.453125 4.984375 -13.875 8.140625 -13.875 C 11.3125 -13.875 13.15625 -11.453125 13.15625 -7.53125 C 13.15625 -3.625 11.3125 -1.171875 8.140625 -1.171875 Z M 8.140625 -1.171875 "/></g></g></g><g fill="#0b4366" fill-opacity="1"><g transform="translate(233.808291, 109.21416)"><g><path d="M 13.359375 -15.0625 L 11.484375 -15.0625 L 11.484375 -5.734375 C 11.484375 -5.265625 11.484375 -4.796875 11.4375 -4.40625 C 11.265625 -2.515625 10.015625 -1.171875 7.703125 -1.171875 C 5.390625 -1.171875 4.140625 -2.515625 3.96875 -4.40625 C 3.921875 -4.796875 3.921875 -5.265625 3.921875 -5.734375 L 3.921875 -15.0625 L 2.046875 -15.0625 L 2.046875 -5.5625 C 2.046875 -5.09375 2.046875 -4.65625 2.09375 -4.21875 C 2.3125 -1.703125 4.015625 0.3125 7.703125 0.3125 C 11.390625 0.3125 13.09375 -1.703125 13.3125 -4.21875 C 13.359375 -4.65625 13.359375 -5.09375 13.359375 -5.5625 Z M 13.359375 -15.0625 "/></g></g></g><g fill="#0b4366" fill-opacity="1"><g transform="translate(248.960476, 109.21416)"><g><path d="M 12.09375 -3.953125 C 11.96875 -5.453125 11.375 -6.828125 10.15625 -7.40625 C 11.546875 -7.84375 12.828125 -8.96875 12.828125 -10.953125 C 12.828125 -13.484375 11.265625 -14.6875 9.078125 -14.96875 C 8.40625 -15.0625 7.875 -15.0625 7.109375 -15.0625 L 2.1875 -15.0625 L 2.1875 0 L 4.0625 0 L 4.0625 -6.484375 L 6.890625 -6.484375 C 7.25 -6.484375 7.625 -6.484375 7.96875 -6.46875 C 9.453125 -6.359375 10.046875 -5.328125 10.21875 -3.78125 C 10.40625 -1.921875 10.609375 -0.953125 11.015625 0 L 13.09375 0 C 12.484375 -0.8125 12.265625 -1.984375 12.09375 -3.953125 Z M 4.0625 -8.015625 L 4.0625 -13.53125 L 7.109375 -13.53125 C 7.796875 -13.53125 8.203125 -13.515625 8.625 -13.453125 C 10.015625 -13.234375 10.828125 -12.46875 10.828125 -10.78125 C 10.828125 -9.078125 9.796875 -8.1875 8.40625 -8.046875 C 7.984375 -8.015625 7.625 -8.015625 6.9375 -8.015625 Z M 4.0625 -8.015625 "/></g></g></g><g fill="#0b4366" fill-opacity="1"><g transform="translate(262.737184, 109.21416)"><g><path d="M 8.140625 -15.359375 C 3.859375 -15.359375 1.03125 -12.046875 1.03125 -7.46875 C 1.03125 -3.0625 3.46875 0.3125 7.859375 0.3125 C 11.828125 0.3125 13.859375 -2.078125 14.140625 -4.796875 L 14.171875 -5.015625 L 12.296875 -5.015625 L 12.25 -4.796875 C 11.8125 -2.640625 10.484375 -1.171875 7.96875 -1.171875 C 5 -1.171875 3.125 -3.84375 3.125 -7.546875 C 3.125 -11.203125 5.015625 -13.875 8.09375 -13.875 C 10.609375 -13.875 11.9375 -12.421875 12.375 -10.265625 L 12.421875 -10.046875 L 14.296875 -10.046875 L 14.28125 -10.265625 C 13.96875 -13.203125 11.96875 -15.359375 8.140625 -15.359375 Z M 8.140625 -15.359375 "/></g></g></g><g fill="#0b4366" fill-opacity="1"><g transform="translate(278.260525, 109.21416)"><g><path d="M 12.203125 -1.53125 L 4.0625 -1.53125 L 4.0625 -6.765625 L 11.328125 -6.765625 L 11.328125 -8.296875 L 4.0625 -8.296875 L 4.0625 -13.53125 L 11.984375 -13.53125 L 11.984375 -15.0625 L 2.1875 -15.0625 L 2.1875 0 L 12.203125 0 Z M 12.203125 -1.53125 "/></g></g></g><g fill="#0b4366" fill-opacity="1"><g transform="translate(291.338578, 109.21416)"><g><path d="M 6.859375 -15.359375 C 4.078125 -15.359375 1.828125 -13.734375 1.828125 -11.125 C 1.828125 -8.640625 3.6875 -7.578125 6.359375 -6.96875 C 9 -6.359375 10.046875 -5.515625 10.046875 -3.6875 C 10.046875 -2.125 8.640625 -1.171875 6.921875 -1.171875 C 4.953125 -1.171875 3.578125 -2.296875 3.140625 -4.28125 L 1.140625 -4.28125 C 1.46875 -1.375 3.5625 0.3125 6.875 0.3125 C 9.78125 0.3125 12.046875 -1.390625 12.046875 -4.03125 C 12.046875 -6.59375 10.390625 -7.953125 7.078125 -8.703125 C 4.78125 -9.234375 3.84375 -9.9375 3.84375 -11.5625 C 3.84375 -13.140625 5.109375 -13.875 6.703125 -13.875 C 8.59375 -13.875 9.71875 -12.796875 9.890625 -10.890625 L 11.890625 -10.890625 C 11.609375 -13.46875 9.96875 -15.359375 6.859375 -15.359375 Z M 6.859375 -15.359375 "/></g></g></g><g fill="#0b4366" fill-opacity="1"><g transform="translate(121.060592, 139.167286)"><g><path d="M 17.203125 -15.0625 L 14.171875 -15.0625 L 9.734375 -1.59375 L 5.28125 -15.0625 L 2.1875 -15.0625 L 2.1875 0 L 4.0625 0 L 4.0625 -7.75 C 4.0625 -9.609375 4.0625 -11.671875 4.015625 -13.3125 C 4.5 -11.703125 5.1875 -9.609375 5.8125 -7.8125 L 8.515625 0 L 10.875 0 L 13.53125 -7.765625 C 14.171875 -9.609375 14.859375 -11.71875 15.359375 -13.359375 C 15.328125 -11.71875 15.328125 -9.625 15.328125 -7.75 L 15.328125 0 L 17.203125 0 Z M 17.203125 -15.0625 "/></g></g></g><g fill="#0b4366" fill-opacity="1"><g transform="translate(140.23005, 139.167286)"><g><path d="M 9.953125 -5.328125 L 11.75 0 L 13.78125 0 L 8.578125 -15.0625 L 6.046875 -15.0625 L 0.640625 0 L 2.640625 0 L 4.40625 -5.328125 Z M 4.9375 -6.859375 L 7.265625 -13.578125 L 9.453125 -6.859375 Z M 4.9375 -6.859375 "/></g></g></g><g fill="#0b4366" fill-opacity="1"><g transform="translate(154.443412, 139.167286)"><g><path d="M 13.96875 0 L 13.921875 -15.0625 L 12.09375 -15.0625 L 12.09375 -7.53125 C 12.09375 -5.765625 12.109375 -3.609375 12.15625 -1.828125 L 5.0625 -15.0625 L 2.1875 -15.0625 L 2.1875 0 L 4.0625 0 L 4.0625 -7.53125 C 4.0625 -9.296875 4.03125 -11.453125 4 -13.234375 L 11.09375 0 Z M 13.96875 0 "/></g></g></g><g fill="#0b4366" fill-opacity="1"><g transform="translate(170.381585, 139.167286)"><g><path d="M 9.953125 -5.328125 L 11.75 0 L 13.78125 0 L 8.578125 -15.0625 L 6.046875 -15.0625 L 0.640625 0 L 2.640625 0 L 4.40625 -5.328125 Z M 4.9375 -6.859375 L 7.265625 -13.578125 L 9.453125 -6.859375 Z M 4.9375 -6.859375 "/></g></g></g><g fill="#0b4366" fill-opacity="1"><g transform="translate(184.594945, 139.167286)"><g><path d="M 8.703125 -7.265625 L 8.703125 -5.734375 L 12.21875 -5.734375 C 12.21875 -3.0625 10.40625 -1.171875 7.96875 -1.171875 C 5 -1.171875 3.125 -3.84375 3.125 -7.546875 C 3.125 -11.203125 5.015625 -13.875 8.09375 -13.875 C 10.609375 -13.875 11.9375 -12.421875 12.375 -10.265625 L 12.421875 -10.046875 L 14.296875 -10.046875 L 14.28125 -10.265625 C 13.96875 -13.203125 11.96875 -15.359375 8.140625 -15.359375 C 3.859375 -15.359375 1.03125 -12.046875 1.03125 -7.46875 C 1.03125 -3.0625 3.46875 0.3125 7.859375 0.3125 C 9.578125 0.3125 10.921875 -0.265625 11.765625 -1.21875 L 12.4375 -2.625 L 12.4375 0 L 14.09375 0 L 14.09375 -7.265625 Z M 8.703125 -7.265625 "/></g></g></g><g fill="#0b4366" fill-opacity="1"><g transform="translate(200.358454, 139.167286)"><g><path d="M 12.203125 -1.53125 L 4.0625 -1.53125 L 4.0625 -6.765625 L 11.328125 -6.765625 L 11.328125 -8.296875 L 4.0625 -8.296875 L 4.0625 -13.53125 L 11.984375 -13.53125 L 11.984375 -15.0625 L 2.1875 -15.0625 L 2.1875 0 L 12.203125 0 Z M 12.203125 -1.53125 "/></g></g></g><g fill="#0b4366" fill-opacity="1"><g transform="translate(213.436506, 139.167286)"><g><path d="M 17.203125 -15.0625 L 14.171875 -15.0625 L 9.734375 -1.59375 L 5.28125 -15.0625 L 2.1875 -15.0625 L 2.1875 0 L 4.0625 0 L 4.0625 -7.75 C 4.0625 -9.609375 4.0625 -11.671875 4.015625 -13.3125 C 4.5 -11.703125 5.1875 -9.609375 5.8125 -7.8125 L 8.515625 0 L 10.875 0 L 13.53125 -7.765625 C 14.171875 -9.609375 14.859375 -11.71875 15.359375 -13.359375 C 15.328125 -11.71875 15.328125 -9.625 15.328125 -7.75 L 15.328125 0 L 17.203125 0 Z M 17.203125 -15.0625 "/></g></g></g><g fill="#0b4366" fill-opacity="1"><g transform="translate(232.605969, 139.167286)"><g><path d="M 12.203125 -1.53125 L 4.0625 -1.53125 L 4.0625 -6.765625 L 11.328125 -6.765625 L 11.328125 -8.296875 L 4.0625 -8.296875 L 4.0625 -13.53125 L 11.984375 -13.53125 L 11.984375 -15.0625 L 2.1875 -15.0625 L 2.1875 0 L 12.203125 0 Z M 12.203125 -1.53125 "/></g></g></g><g fill="#0b4366" fill-opacity="1"><g transform="translate(245.684021, 139.167286)"><g><path d="M 13.96875 0 L 13.921875 -15.0625 L 12.09375 -15.0625 L 12.09375 -7.53125 C 12.09375 -5.765625 12.109375 -3.609375 12.15625 -1.828125 L 5.0625 -15.0625 L 2.1875 -15.0625 L 2.1875 0 L 4.0625 0 L 4.0625 -7.53125 C 4.0625 -9.296875 4.03125 -11.453125 4 -13.234375 L 11.09375 0 Z M 13.96875 0 "/></g></g></g><g fill="#0b4366" fill-opacity="1"><g transform="translate(261.622191, 139.167286)"><g><path d="M 13.359375 -13.53125 L 13.359375 -15.0625 L 0.734375 -15.0625 L 0.734375 -13.53125 L 6.109375 -13.53125 L 6.109375 0 L 7.984375 0 L 7.984375 -13.53125 Z M 13.359375 -13.53125 "/></g></g></g><g clip-path="url(#8080f8b2ec)"><g clip-path="url(#50c07e65fa)"><path fill="url(#337667dd49)" d="M 0.121094 0 L 0.121094 148.242188 L 87.511719 148.242188 L 87.511719 0 Z M 0.121094 0 " fill-rule="nonzero"/></g></g></svg>